<svg width="14" height="14" viewBox="0 0 14 14" fill="none" xmlns="http://www.w3.org/2000/svg">
<path d="M4.66626 1.16797C5.43931 1.16797 6.1811 1.47492 6.72778 2.02148C6.82727 2.12097 6.91605 2.22941 6.99927 2.34082C7.08261 2.22918 7.17205 2.12116 7.27173 2.02148C7.81842 1.47483 8.56014 1.16798 9.33325 1.16797H12.8333C13.1546 1.16797 13.4153 1.42864 13.4153 1.75V10.5C13.4152 10.8213 13.1546 11.082 12.8333 11.082H8.75024C8.44047 11.082 8.14313 11.2048 7.92407 11.4238C7.70501 11.6429 7.58228 11.9402 7.58228 12.25C7.58224 12.3704 7.54533 12.4824 7.48267 12.5752C7.44084 12.6371 7.38735 12.6906 7.32544 12.7324C7.26355 12.7743 7.19317 12.8048 7.11743 12.8203C7.07961 12.8281 7.04036 12.832 7.00024 12.832C6.96022 12.832 6.9208 12.828 6.88306 12.8203C6.65558 12.774 6.4765 12.5946 6.42993 12.3672L6.41821 12.25C6.41821 11.9402 6.29451 11.6429 6.07544 11.4238C5.85648 11.205 5.55981 11.0821 5.25024 11.082H1.16626C0.84509 11.0819 0.584313 10.8212 0.584229 10.5V1.75C0.584229 1.42874 0.845038 1.16813 1.16626 1.16797H4.66626ZM1.74829 9.91797H5.25024C5.66385 9.91803 6.06632 10.0278 6.41821 10.2314V4.08301C6.41817 3.61855 6.23296 3.17315 5.90454 2.84473C5.5761 2.51641 5.13066 2.33203 4.66626 2.33203H1.74829V9.91797ZM9.33325 2.33203C8.86878 2.33204 8.42342 2.51631 8.09497 2.84473C7.76655 3.17315 7.58232 3.61855 7.58228 4.08301V10.2314C7.93417 10.0279 8.33667 9.91797 8.75024 9.91797H12.2512V2.33203H9.33325Z" fill="#74798B"/>
</svg>
