<svg width="14" height="14" viewBox="0 0 14 14" fill="none" xmlns="http://www.w3.org/2000/svg">
<path d="M8.16675 0.583984C8.20643 0.583987 8.24564 0.588799 8.28394 0.59668C8.37768 0.615892 8.46156 0.659388 8.53296 0.717773C8.54797 0.730031 8.56405 0.741063 8.57788 0.754883L12.0779 4.25488C12.1577 4.3347 12.2143 4.43761 12.2371 4.55273C12.2444 4.58979 12.2488 4.62768 12.2488 4.66602V11.666C12.2488 12.1297 12.064 12.5744 11.7361 12.9023C11.4082 13.2303 10.9635 13.415 10.4998 13.415H3.49976C3.03611 13.415 2.59128 13.2302 2.26343 12.9023C1.9357 12.5745 1.75171 12.1296 1.75171 11.666V2.33301C1.75171 1.86933 1.9356 1.42458 2.26343 1.09668C2.59128 0.768831 3.03612 0.584059 3.49976 0.583984H8.16675ZM3.49976 1.74805C3.34476 1.74812 3.19627 1.81032 3.08667 1.91992C2.97709 2.02958 2.9148 2.17798 2.91479 2.33301V11.666C2.91479 11.8211 2.977 11.9704 3.08667 12.0801C3.19626 12.1896 3.34485 12.2509 3.49976 12.251H10.4998C10.6549 12.251 10.8041 12.1897 10.9138 12.0801C11.0235 11.9704 11.0847 11.8211 11.0847 11.666V5.24805H8.16675C7.84539 5.24805 7.58472 4.98738 7.58472 4.66602V1.74805H3.49976ZM9.33276 9.33496C9.65401 9.33496 9.91462 9.59481 9.91479 9.91602C9.91479 10.2374 9.65412 10.498 9.33276 10.498H4.66675C4.34539 10.498 4.08472 10.2374 4.08472 9.91602C4.0849 9.59481 4.3455 9.33496 4.66675 9.33496H9.33276ZM9.33276 7.00195C9.65412 7.00195 9.91479 7.26262 9.91479 7.58398C9.91458 7.90516 9.65399 8.16504 9.33276 8.16504H4.66675C4.34552 8.16504 4.08493 7.90516 4.08472 7.58398C4.08472 7.26262 4.34539 7.00195 4.66675 7.00195H9.33276ZM5.83276 4.66895C6.15412 4.66895 6.41479 4.92962 6.41479 5.25098C6.41471 5.57227 6.15407 5.83301 5.83276 5.83301H4.66675C4.34544 5.83301 4.0848 5.57227 4.08472 5.25098C4.08472 4.92962 4.34539 4.66895 4.66675 4.66895H5.83276ZM8.74878 4.08398H10.2615L8.74878 2.57129V4.08398Z" fill="#74798B"/>
</svg>
