<svg width="14" height="14" viewBox="0 0 14 14" fill="none" xmlns="http://www.w3.org/2000/svg">
<path d="M7 0.00195312C7.32134 0.00197159 7.58203 0.262635 7.58203 0.583984V2.33496H9.91699C10.2381 2.33516 10.4979 2.59493 10.498 2.91602C10.498 3.23726 10.2382 3.49785 9.91699 3.49805H7.58203V6.41797H8.45801C9.15381 6.41797 9.82147 6.69451 10.3135 7.18652C10.8053 7.67844 11.0819 8.34541 11.082 9.04102C11.082 9.73681 10.8055 10.4045 10.3135 10.8965C9.82147 11.3885 9.15381 11.665 8.45801 11.665H7.58203V13.417C7.58199 13.7383 7.32132 13.999 7 13.999C6.67866 13.999 6.41801 13.7383 6.41797 13.417V11.665H3.5C3.17864 11.665 2.91797 11.4044 2.91797 11.083C2.91797 10.7617 3.17864 10.501 3.5 10.501H6.41797V7.58203H5.54199C4.84627 7.58203 4.17852 7.30538 3.68652 6.81348C3.19451 6.32147 2.91797 5.65381 2.91797 4.95801C2.91797 4.2622 3.19452 3.59455 3.68652 3.10254C4.17852 2.61064 4.84627 2.33496 5.54199 2.33496H6.41797V0.583984C6.41797 0.262624 6.67864 0.00195312 7 0.00195312ZM7.58203 10.501H8.45801C8.84517 10.501 9.21647 10.347 9.49023 10.0732C9.76399 9.79948 9.91797 9.42817 9.91797 9.04102C9.91788 8.65397 9.76392 8.28247 9.49023 8.00879C9.2165 7.73522 8.84502 7.58203 8.45801 7.58203H7.58203V10.501ZM5.54199 3.49805C5.15492 3.49805 4.78351 3.65213 4.50977 3.92578C4.236 4.19954 4.08203 4.57085 4.08203 4.95801C4.08203 5.34517 4.236 5.71647 4.50977 5.99023C4.78351 6.26389 5.15491 6.41797 5.54199 6.41797H6.41797V3.49805H5.54199Z" fill="#74798B"/>
</svg>
