<svg width="14" height="14" viewBox="0 0 14 14" fill="none" xmlns="http://www.w3.org/2000/svg">
<path d="M8.16626 1.16797C8.62981 1.16797 9.07471 1.35202 9.40259 1.67969C9.7305 2.0076 9.91528 2.45325 9.91528 2.91699V3.50098H11.6663C12.6319 3.50098 13.4151 4.28345 13.4153 5.24902V11.083C13.4151 12.0485 12.6318 12.8311 11.6663 12.8311H9.34302C9.33977 12.8311 9.33652 12.832 9.33325 12.832C9.33 12.832 9.32673 12.8311 9.32349 12.8311H4.67603C4.67287 12.8311 4.66942 12.832 4.66626 12.832C4.66299 12.832 4.65975 12.8311 4.65649 12.8311H2.33325C1.36769 12.8311 0.584445 12.0485 0.584229 11.083V5.24902C0.584364 4.28345 1.36764 3.50098 2.33325 3.50098H4.08423V2.91699C4.08423 2.45325 4.26901 2.0076 4.59692 1.67969C4.92481 1.35193 5.36963 1.16797 5.83325 1.16797H8.16626ZM9.91528 11.667H11.6663C11.9891 11.667 12.251 11.4058 12.2512 11.083V5.24902C12.2511 4.92617 11.9891 4.66406 11.6663 4.66406H9.91528V11.667ZM5.24829 11.667H8.75122V4.66406H5.24829V11.667ZM2.33325 4.66406C2.01036 4.66406 1.74843 4.92617 1.74829 5.24902V11.083C1.74851 11.4058 2.01041 11.667 2.33325 11.667H4.08423V4.66406H2.33325ZM5.83325 2.33203C5.67828 2.33203 5.52981 2.39342 5.42017 2.50293C5.3105 2.6126 5.24829 2.7619 5.24829 2.91699V3.50098H8.75122V2.91699C8.75122 2.76194 8.68994 2.61259 8.58032 2.50293C8.47065 2.39326 8.32136 2.33203 8.16626 2.33203H5.83325Z" fill="#74798B"/>
</svg>
