<svg width="13" height="14" viewBox="0 0 13 14" fill="none" xmlns="http://www.w3.org/2000/svg">
<path fill-rule="evenodd" clip-rule="evenodd" d="M6.125 7.01547e-05C4.99058 7.01547e-05 3.89949 0.439374 3.09256 1.22627C2.28508 2.01371 1.82839 3.08517 1.82839 4.20589C1.82839 6.189 1.39361 7.41653 0.995647 8.12801C0.795665 8.48554 0.601199 8.71962 0.466657 8.85811C0.39922 8.92753 0.346416 8.97336 0.314956 8.99893C0.299219 9.01171 0.288807 9.01944 0.284561 9.02253L0.28337 9.02339C0.0512563 9.17912 -0.0532147 9.46796 0.0264437 9.73664C0.106989 10.0083 0.356608 10.1947 0.639966 10.1947H11.61C11.8934 10.1947 12.143 10.0083 12.2235 9.73664C12.3032 9.46796 12.1987 9.17912 11.9666 9.02339L11.9654 9.02253C11.9612 9.01944 11.9508 9.01171 11.935 8.99893C11.9036 8.97336 11.8508 8.92753 11.7833 8.85811C11.6488 8.71962 11.4543 8.48554 11.2543 8.12801C10.8564 7.41653 10.4216 6.189 10.4216 4.20589C10.4216 3.08517 9.96491 2.01371 9.15743 1.22627C8.3505 0.439374 7.25941 7.01547e-05 6.125 7.01547e-05ZM10.2315 8.91482H2.01848C2.04987 8.8628 2.08129 8.80881 2.11263 8.75278C2.62884 7.82989 3.10823 6.383 3.10823 4.20589C3.10823 3.43514 3.42205 2.6926 3.9861 2.14256C4.55069 1.59199 5.31978 1.27991 6.125 1.27991C6.93021 1.27991 7.69931 1.59199 8.2639 2.14256C8.82794 2.6926 9.14176 3.43514 9.14176 4.20589C9.14176 6.383 9.62115 7.82989 10.1374 8.75278C10.1687 8.80881 10.2001 8.8628 10.2315 8.91482ZM5.01133 11.4782C4.82651 11.1596 4.4184 11.0511 4.09978 11.2359C3.78117 11.4208 3.67271 11.8289 3.85753 12.1475C4.08367 12.5373 4.40824 12.8609 4.79876 13.0858C5.18929 13.3108 5.63205 13.4292 6.08272 13.4292C6.53339 13.4292 6.97615 13.3108 7.36667 13.0858C7.75719 12.8609 8.08177 12.5373 8.3079 12.1475C8.49272 11.8289 8.38426 11.4208 8.06565 11.2359C7.74704 11.0511 7.33892 11.1596 7.1541 11.4782C7.04522 11.6659 6.88894 11.8217 6.70092 11.93C6.51289 12.0383 6.29971 12.0953 6.08272 12.0953C5.86573 12.0953 5.65255 12.0383 5.46452 11.93C5.27649 11.8217 5.12021 11.6659 5.01133 11.4782Z" fill="#74798B"/>
</svg>
