<svg width="13" height="13" viewBox="0 0 13 13" fill="none" xmlns="http://www.w3.org/2000/svg">
<path fill-rule="evenodd" clip-rule="evenodd" d="M6.41521 1.16375C3.51491 1.16375 1.16375 3.51491 1.16375 6.41521C1.16375 9.31551 3.51491 11.6667 6.41521 11.6667C9.31551 11.6667 11.6667 9.31551 11.6667 6.41521C11.6667 3.51491 9.31551 1.16375 6.41521 1.16375ZM0 6.41521C0 2.87219 2.87219 0 6.41521 0C9.95823 0 12.8304 2.87219 12.8304 6.41521C12.8304 9.95823 9.95823 12.8304 6.41521 12.8304C2.87219 12.8304 0 9.95823 0 6.41521ZM6.83767 3.68144L9.15999 6.00376C9.38723 6.231 9.38723 6.59942 9.15999 6.82666C8.93275 7.05389 8.56433 7.05389 8.33709 6.82666L6.99737 5.48693V8.74854C6.99737 9.0699 6.73685 9.33042 6.41549 9.33042C6.09413 9.33042 5.83362 9.0699 5.83362 8.74854V5.48636L4.49332 6.82666C4.26609 7.05389 3.89766 7.05389 3.67043 6.82666C3.44319 6.59942 3.44319 6.231 3.67043 6.00376L6.00376 3.67043C6.10318 3.57101 6.22962 3.51509 6.35943 3.50266C6.37807 3.50088 6.39678 3.49999 6.41549 3.5C6.5817 3.5 6.73163 3.56969 6.83767 3.68144Z" fill="#74798B"/>
</svg>
