<svg width="12" height="13" viewBox="0 0 12 13" fill="none" xmlns="http://www.w3.org/2000/svg">
<path fill-rule="evenodd" clip-rule="evenodd" d="M6.64691 0.0481528C6.88386 0.15101 7.02464 0.397765 6.9926 0.65408L6.49102 4.6667H11.0819C11.3077 4.6667 11.5131 4.79731 11.6088 5.00177C11.7046 5.20623 11.6734 5.44763 11.5289 5.62108L5.69556 12.6211C5.53019 12.8195 5.2538 12.8852 5.01685 12.7823C4.7799 12.6795 4.63913 12.4327 4.67117 12.1764L5.17274 8.16378H0.581882C0.356104 8.16378 0.150707 8.03317 0.0549422 7.82871C-0.0408226 7.62425 -0.00966608 7.38285 0.134873 7.2094L5.96821 0.2094C6.13357 0.010961 6.40997 -0.0547046 6.64691 0.0481528ZM1.82421 7.00003H5.83188C5.99878 7.00003 6.15765 7.0717 6.2681 7.19682C6.37856 7.32194 6.42997 7.48847 6.40926 7.65408L6.0721 10.3514L9.83956 5.83045H5.83188C5.66498 5.83045 5.50612 5.75878 5.39566 5.63366C5.28521 5.50854 5.2338 5.34201 5.2545 5.1764L5.59167 2.47909L1.82421 7.00003Z" fill="#74798B"/>
</svg>
