<svg width="13" height="13" viewBox="0 0 13 13" fill="none" xmlns="http://www.w3.org/2000/svg">
<path fill-rule="evenodd" clip-rule="evenodd" d="M6.41521 1.16375C3.51491 1.16375 1.16375 3.51491 1.16375 6.41521C1.16375 9.31551 3.51491 11.6667 6.41521 11.6667C9.31551 11.6667 11.6667 9.31551 11.6667 6.41521C11.6667 3.51491 9.31551 1.16375 6.41521 1.16375ZM0 6.41521C0 2.87219 2.87219 0 6.41521 0C9.95823 0 12.8304 2.87219 12.8304 6.41521C12.8304 9.95823 9.95823 12.8304 6.41521 12.8304C2.87219 12.8304 0 9.95823 0 6.41521ZM6.56609 4.0946C6.2942 4.04796 6.01457 4.09906 5.77674 4.23883C5.53891 4.37861 5.35822 4.59805 5.26668 4.85828C5.16004 5.16143 4.82783 5.32073 4.52468 5.21409C4.22153 5.10745 4.06223 4.77524 4.16887 4.47209C4.35162 3.95261 4.71232 3.51455 5.18709 3.23553C5.66186 2.9565 6.22006 2.8545 6.76283 2.9476C7.3056 3.0407 7.79791 3.32289 8.15255 3.74418C8.50716 4.16542 8.70126 4.69856 8.70048 5.24918C8.70016 6.14104 8.0389 6.73015 7.56637 7.04517C7.31235 7.21452 7.06246 7.33905 6.87837 7.42087C6.7855 7.46214 6.7073 7.49346 6.65095 7.51493C6.62273 7.52568 6.59985 7.53401 6.5832 7.53993L6.56295 7.54702L6.5565 7.54923L6.55424 7.54999L6.55334 7.55029L6.55296 7.55042C6.55278 7.55048 6.55261 7.55053 6.36861 6.99852L6.55261 7.55053C6.24774 7.65216 5.91822 7.48739 5.81659 7.18252C5.71511 6.87806 5.87929 6.54901 6.18338 6.44691L6.18431 6.4466L6.19333 6.44343C6.20231 6.44024 6.21703 6.4349 6.23666 6.42742C6.27602 6.41243 6.33453 6.38906 6.40572 6.35742C6.54976 6.2934 6.73737 6.19918 6.92084 6.07687C7.3232 5.80863 7.53673 5.52295 7.53673 5.24852L7.53673 5.24765C7.53715 4.97179 7.43991 4.70468 7.26225 4.49364C7.0846 4.2826 6.83798 4.14124 6.56609 4.0946ZM8.70048 5.24918V5.24852H8.11868L8.70048 5.24939L8.70048 5.24918ZM6.41549 8.75C6.09413 8.75 5.83362 9.01051 5.83362 9.33187C5.83362 9.65324 6.09413 9.91375 6.41549 9.91375H6.42133C6.74269 9.91375 7.0032 9.65324 7.0032 9.33187C7.0032 9.01051 6.74269 8.75 6.42133 8.75H6.41549Z" fill="#74798B"/>
</svg>
