<svg width="14" height="3" viewBox="0 0 14 3" fill="none" xmlns="http://www.w3.org/2000/svg">
<path fill-rule="evenodd" clip-rule="evenodd" d="M1.49813 0C0.670733 0 0 0.670733 0 1.49812C0 2.32552 0.670733 2.99625 1.49813 2.99625C2.32552 2.99625 2.99625 2.32552 2.99625 1.49812C2.99625 0.670733 2.32552 0 1.49813 0ZM5.25037 1.49812C5.25037 0.670733 5.9211 0 6.74849 0C7.57588 0 8.24662 0.670733 8.24662 1.49812C8.24662 2.32552 7.57588 2.99625 6.74849 2.99625C5.9211 2.99625 5.25037 2.32552 5.25037 1.49812ZM10.5002 1.49812C10.5002 0.670733 11.1709 0 11.9983 0C12.8257 0 13.4964 0.670733 13.4964 1.49812C13.4964 2.32552 12.8257 2.99625 11.9983 2.99625C11.1709 2.99625 10.5002 2.32552 10.5002 1.49812Z" fill="#74798B"/>
</svg>
