<svg width="16" height="16" viewBox="0 0 16 16" fill="none" xmlns="http://www.w3.org/2000/svg">
<path fill-rule="evenodd" clip-rule="evenodd" d="M1.99996 3.33594C1.63269 3.33594 1.33496 3.63367 1.33496 4.00094C1.33496 4.36821 1.63269 4.66594 1.99996 4.66594H2.00663C2.3739 4.66594 2.67163 4.36821 2.67163 4.00094C2.67163 3.63367 2.3739 3.33594 2.00663 3.33594H1.99996ZM5.33346 3.33594C4.96619 3.33594 4.66846 3.63367 4.66846 4.00094C4.66846 4.36821 4.96619 4.66594 5.33346 4.66594H14.0001C14.3674 4.66594 14.6651 4.36821 14.6651 4.00094C14.6651 3.63367 14.3674 3.33594 14.0001 3.33594H5.33346ZM5.33346 7.33594C4.96619 7.33594 4.66846 7.63367 4.66846 8.00094C4.66846 8.36821 4.96619 8.66594 5.33346 8.66594H14.0001C14.3674 8.66594 14.6651 8.36821 14.6651 8.00094C14.6651 7.63367 14.3674 7.33594 14.0001 7.33594H5.33346ZM4.66846 12.0009C4.66846 11.6337 4.96619 11.3359 5.33346 11.3359H14.0001C14.3674 11.3359 14.6651 11.6337 14.6651 12.0009C14.6651 12.3682 14.3674 12.6659 14.0001 12.6659H5.33346C4.96619 12.6659 4.66846 12.3682 4.66846 12.0009ZM1.33496 8.00094C1.33496 7.63367 1.63269 7.33594 1.99996 7.33594H2.00663C2.3739 7.33594 2.67163 7.63367 2.67163 8.00094C2.67163 8.36821 2.3739 8.66594 2.00663 8.66594H1.99996C1.63269 8.66594 1.33496 8.36821 1.33496 8.00094ZM1.99996 11.3359C1.63269 11.3359 1.33496 11.6337 1.33496 12.0009C1.33496 12.3682 1.63269 12.6659 1.99996 12.6659H2.00663C2.3739 12.6659 2.67163 12.3682 2.67163 12.0009C2.67163 11.6337 2.3739 11.3359 2.00663 11.3359H1.99996Z" fill="#74798B"/>
</svg>
