<svg width="14" height="14" viewBox="0 0 14 14" fill="none" xmlns="http://www.w3.org/2000/svg">
<path fill-rule="evenodd" clip-rule="evenodd" d="M1.33 5.99833C1.33 3.42008 3.42008 1.33 5.99833 1.33C8.57658 1.33 10.6667 3.42008 10.6667 5.99833C10.6667 7.25646 10.169 8.39834 9.35972 9.23785C9.33719 9.25521 9.31552 9.27422 9.29487 9.29487C9.27422 9.31552 9.25521 9.33719 9.23785 9.35972C8.39834 10.169 7.25646 10.6667 5.99833 10.6667C3.42008 10.6667 1.33 8.57658 1.33 5.99833ZM9.74358 10.684C8.71724 11.5054 7.41515 11.9967 5.99833 11.9967C2.68554 11.9967 0 9.31112 0 5.99833C0 2.68554 2.68554 0 5.99833 0C9.31112 0 11.9967 2.68554 11.9967 5.99833C11.9967 7.41515 11.5054 8.71724 10.684 9.74358L13.1353 12.1949C13.395 12.4546 13.395 12.8756 13.1353 13.1353C12.8756 13.395 12.4546 13.395 12.1949 13.1353L9.74358 10.684Z" fill="#8F929C"/>
</svg>
