<svg width="12" height="9" viewBox="0 0 12 9" fill="none" xmlns="http://www.w3.org/2000/svg">
<path fill-rule="evenodd" clip-rule="evenodd" d="M0 0.65C0 0.291015 0.291015 0 0.65 0H10.65C11.009 0 11.3 0.291015 11.3 0.65C11.3 1.00899 11.009 1.3 10.65 1.3H0.65C0.291015 1.3 0 1.00899 0 0.65ZM1.5 4.2999C1.5 3.94092 1.79101 3.6499 2.15 3.6499H9.15C9.50899 3.6499 9.8 3.94092 9.8 4.2999C9.8 4.65889 9.50899 4.9499 9.15 4.9499H2.15C1.79101 4.9499 1.5 4.65889 1.5 4.2999ZM4.15 7.1499C3.79101 7.1499 3.5 7.44092 3.5 7.7999C3.5 8.15889 3.79101 8.4499 4.15 8.4499H7.15C7.50899 8.4499 7.8 8.15889 7.8 7.7999C7.8 7.44092 7.50899 7.1499 7.15 7.1499H4.15Z" fill="#8F929C"/>
</svg>
