<svg width="9" height="12" viewBox="0 0 9 12" fill="none" xmlns="http://www.w3.org/2000/svg">
<path fill-rule="evenodd" clip-rule="evenodd" d="M8.09779 3.37095L4.16501 0L0.232236 3.37095C-0.0466159 3.60997 -0.0789093 4.02978 0.160106 4.30863C0.399122 4.58748 0.818937 4.61978 1.09779 4.38076L4.16501 1.75171L7.23224 4.38076C7.51109 4.61978 7.9309 4.58748 8.16992 4.30863C8.40893 4.02978 8.37664 3.60997 8.09779 3.37095ZM0.232291 8.381L4.16507 11.752L8.09784 8.381C8.37669 8.14199 8.40899 7.72217 8.16997 7.44332C7.93096 7.16447 7.51114 7.13217 7.23229 7.37119L4.16507 10.0002L1.09784 7.37119C0.818992 7.13217 0.399177 7.16447 0.160161 7.44332C-0.0788542 7.72217 -0.0465609 8.14199 0.232291 8.381Z" fill="#8F929C"/>
</svg>
