<svg width="14" height="15" viewBox="0 0 14 15" fill="none" xmlns="http://www.w3.org/2000/svg">
<path fill-rule="evenodd" clip-rule="evenodd" d="M9.99699 0.665C9.99699 0.297731 9.69926 0 9.33199 0C8.96472 0 8.66699 0.297731 8.66699 0.665V1.3335H4.66301V0.665C4.66301 0.297731 4.36528 0 3.99801 0C3.63074 0 3.33301 0.297731 3.33301 0.665V1.3335H1.99833C0.894684 1.3335 0 2.22818 0 3.33183V5.9985V12.6652C0 13.7688 0.894684 14.6635 1.99833 14.6635H11.3317C12.4353 14.6635 13.33 13.7688 13.33 12.6652V5.9985V3.33183C13.33 2.22818 12.4353 1.3335 11.3317 1.3335H9.99699V0.665ZM12 5.3335V3.33183C12 2.96272 11.7008 2.6635 11.3317 2.6635H9.99699V3.33167C9.99699 3.69894 9.69926 3.99667 9.33199 3.99667C8.96472 3.99667 8.66699 3.69894 8.66699 3.33167V2.6635H4.66301V3.33167C4.66301 3.69894 4.36528 3.99667 3.99801 3.99667C3.63074 3.99667 3.33301 3.69894 3.33301 3.33167V2.6635H1.99833C1.62922 2.6635 1.33 2.96272 1.33 3.33183V5.3335H12ZM1.33 6.6635H12V12.6652C12 13.0343 11.7008 13.3335 11.3317 13.3335H1.99833C1.62922 13.3335 1.33 13.0343 1.33 12.6652V6.6635Z" fill="#74798B"/>
</svg>
