<svg width="16" height="14" viewBox="0 0 16 14" fill="none" xmlns="http://www.w3.org/2000/svg">
<path fill-rule="evenodd" clip-rule="evenodd" d="M3.99699 3.33167C3.99699 2.22618 4.89317 1.33 5.99866 1.33C7.10415 1.33 8.00033 2.22618 8.00033 3.33167C8.00033 4.43716 7.10415 5.33333 5.99866 5.33333C4.89317 5.33333 3.99699 4.43716 3.99699 3.33167ZM5.99866 0C4.15863 0 2.66699 1.49164 2.66699 3.33167C2.66699 5.1717 4.15863 6.66333 5.99866 6.66333C7.83869 6.66333 9.33033 5.1717 9.33033 3.33167C9.33033 1.49164 7.83869 0 5.99866 0ZM3.33167 8C2.44805 8 1.60063 8.35102 0.975823 8.97582C0.351014 9.60063 0 10.4481 0 11.3317V12.665C0 13.0323 0.297731 13.33 0.665 13.33C1.03227 13.33 1.33 13.0323 1.33 12.665V11.3317C1.33 10.8008 1.54089 10.2917 1.91627 9.91628C2.29166 9.54089 2.80079 9.33 3.33167 9.33H8.665C9.19588 9.33 9.70501 9.54089 10.0804 9.91628C10.4558 10.2917 10.6667 10.8008 10.6667 11.3317V12.665C10.6667 13.0323 10.9644 13.33 11.3317 13.33C11.6989 13.33 11.9967 13.0323 11.9967 12.665V11.3317C11.9967 10.4481 11.6457 9.60063 11.0208 8.97582C10.396 8.35102 9.54861 8 8.665 8H3.33167ZM12.6878 8.58534C12.7796 8.22973 13.1423 8.01589 13.4979 8.1077C14.2127 8.29225 14.8459 8.70895 15.2982 9.29237C15.7504 9.8758 15.9961 10.5929 15.9967 11.3311V12.6649C15.9967 13.0322 15.6989 13.3299 15.3317 13.3299C14.9644 13.3299 14.6667 13.0322 14.6667 12.6649V11.3318C14.6663 10.8884 14.5187 10.4577 14.247 10.1072C13.9753 9.7567 13.5948 9.50635 13.1654 9.39547C12.8098 9.30365 12.596 8.94094 12.6878 8.58534ZM10.8301 0.107367C10.4743 0.0162699 10.112 0.230848 10.0209 0.58664C9.92984 0.942432 10.1444 1.30471 10.5002 1.3958C10.9308 1.50605 11.3124 1.75646 11.5849 2.10755C11.8575 2.45865 12.0054 2.89046 12.0054 3.33492C12.0054 3.77937 11.8575 4.21119 11.5849 4.56229C11.3124 4.91338 10.9308 5.16379 10.5002 5.27403C10.1444 5.36513 9.92984 5.72741 10.0209 6.0832C10.112 6.43899 10.4743 6.65357 10.8301 6.56247C11.5468 6.37898 12.182 5.96219 12.6356 5.3778C13.0892 4.79342 13.3354 4.07469 13.3354 3.33492C13.3354 2.59515 13.0892 1.87642 12.6356 1.29203C12.182 0.707651 11.5468 0.29086 10.8301 0.107367Z" fill="#74798B"/>
</svg>
