<svg width="15" height="15" viewBox="0 0 15 15" fill="none" xmlns="http://www.w3.org/2000/svg">
<path fill-rule="evenodd" clip-rule="evenodd" d="M1.33 7.33167C1.33 4.01704 4.01704 1.33 7.33167 1.33C10.6463 1.33 13.3333 4.01704 13.3333 7.33167C13.3333 10.6463 10.6463 13.3333 7.33167 13.3333C4.01704 13.3333 1.33 10.6463 1.33 7.33167ZM7.33167 0C3.2825 0 0 3.2825 0 7.33167C0 11.3808 3.2825 14.6633 7.33167 14.6633C11.3808 14.6633 14.6633 11.3808 14.6633 7.33167C14.6633 3.2825 11.3808 0 7.33167 0ZM7.99675 3.33297C7.99675 2.9657 7.69902 2.66797 7.33175 2.66797C6.96448 2.66797 6.66675 2.9657 6.66675 3.33297V7.33297C6.66675 7.58485 6.80906 7.81512 7.03435 7.92776L9.70102 9.2611C10.0295 9.42534 10.429 9.29219 10.5932 8.9637C10.7575 8.6352 10.6243 8.23576 10.2958 8.07151L7.99675 6.92198V3.33297Z" fill="#8F929C"/>
</svg>
