<svg width="11" height="11" viewBox="0 0 11 11" fill="none" xmlns="http://www.w3.org/2000/svg">
<path fill-rule="evenodd" clip-rule="evenodd" d="M5.9965 0.665C5.9965 0.297731 5.69877 0 5.3315 0C4.96423 0 4.6665 0.297731 4.6665 0.665V4.66675H0.665C0.297731 4.66675 0 4.96448 0 5.33175C0 5.69902 0.297731 5.99675 0.665 5.99675H4.6665V9.99833C4.6665 10.3656 4.96423 10.6633 5.3315 10.6633C5.69877 10.6633 5.9965 10.3656 5.9965 9.99833V5.99675H9.99833C10.3656 5.99675 10.6633 5.69902 10.6633 5.33175C10.6633 4.96448 10.3656 4.66675 9.99833 4.66675H5.9965V0.665Z" fill="#8F929C"/>
</svg>
