<svg width="16" height="12" viewBox="0 0 16 12" fill="none" xmlns="http://www.w3.org/2000/svg">
<path fill-rule="evenodd" clip-rule="evenodd" d="M2 1H11C11.5523 1 12 1.44772 12 2V3C12 3.55228 11.5523 4 11 4H2C1.44772 4 1 3.55228 1 3V2C1 1.44772 1.44772 1 2 1ZM0 2C0 0.895431 0.895431 0 2 0H11C12.1046 0 13 0.895431 13 2V3C13 4.10457 12.1046 5 11 5H2C0.89543 5 0 4.10457 0 3V2ZM5 8H14C14.5523 8 15 8.44771 15 9V10C15 10.5523 14.5523 11 14 11H5C4.44772 11 4 10.5523 4 10V9C4 8.44772 4.44772 8 5 8ZM3 9C3 7.89543 3.89543 7 5 7H14C15.1046 7 16 7.89543 16 9V10C16 11.1046 15.1046 12 14 12H5C3.89543 12 3 11.1046 3 10V9Z" fill="#8F929C"/>
</svg>
