<svg width="20" height="20" viewBox="0 0 20 20" fill="none" xmlns="http://www.w3.org/2000/svg">
<path fill-rule="evenodd" clip-rule="evenodd" d="M5.33313 8.66797C4.59767 8.66797 4.00146 9.26418 4.00146 9.99964C4.00146 10.7351 4.59767 11.3313 5.33313 11.3313C6.06859 11.3313 6.6648 10.7351 6.6648 9.99964C6.6648 9.26418 6.06859 8.66797 5.33313 8.66797ZM8.66846 9.99964C8.66846 9.26418 9.26466 8.66797 10.0001 8.66797C10.7356 8.66797 11.3318 9.26418 11.3318 9.99964C11.3318 10.7351 10.7356 11.3313 10.0001 11.3313C9.26466 11.3313 8.66846 10.7351 8.66846 9.99964ZM13.335 9.99964C13.335 9.26418 13.9312 8.66797 14.6666 8.66797C15.4021 8.66797 15.9983 9.26418 15.9983 9.99964C15.9983 10.7351 15.4021 11.3313 14.6666 11.3313C13.9312 11.3313 13.335 10.7351 13.335 9.99964Z" fill="#8F929C"/>
</svg>
