<svg width="15" height="12" viewBox="0 0 15 12" fill="none" xmlns="http://www.w3.org/2000/svg">
<path fill-rule="evenodd" clip-rule="evenodd" d="M1.40106 1.70055C1.51152 1.48181 1.73891 1.33 1.99833 1.33H12.665C12.9244 1.33 13.1518 1.48184 13.2623 1.70061L7.33172 5.85202L1.40106 1.70055ZM1.33 3.27428V9.99833C1.33 10.3644 1.63227 10.6667 1.99833 10.6667H12.665C13.0311 10.6667 13.3333 10.3644 13.3333 9.99833V3.27437L7.71308 7.20854C7.4841 7.36882 7.17934 7.36882 6.95037 7.20854L1.33 3.27428ZM14.6633 2.00882V9.99833C14.6633 11.0989 13.7656 11.9967 12.665 11.9967H1.99833C0.897731 11.9967 0 11.0989 0 9.99833V1.99833C0 0.897731 0.897731 0 1.99833 0H12.665C13.7597 0 14.6536 0.888048 14.6633 1.9805C14.6635 1.98994 14.6635 1.99939 14.6633 2.00882Z" fill="#74798B"/>
</svg>
