<svg width="12" height="13" viewBox="0 0 12 13" fill="none" xmlns="http://www.w3.org/2000/svg">
<path fill-rule="evenodd" clip-rule="evenodd" d="M6.18911 0.122571C5.97899 -0.0408569 5.68476 -0.0408569 5.47464 0.122571L0.224638 4.2059C0.0829014 4.31614 0 4.48565 0 4.66521V11.0819C0 11.5456 0.184221 11.9904 0.512136 12.3183C0.840051 12.6462 1.2848 12.8304 1.74854 12.8304H4.04517C4.05731 12.8312 4.06955 12.8316 4.08187 12.8316C4.0942 12.8316 4.10644 12.8312 4.11858 12.8304H7.54517C7.55731 12.8312 7.56955 12.8316 7.58187 12.8316C7.5942 12.8316 7.60644 12.8312 7.61858 12.8304H9.91521C10.379 12.8304 10.8237 12.6462 11.1516 12.3183C11.4795 11.9904 11.6637 11.5456 11.6637 11.0819V4.66521C11.6637 4.48565 11.5808 4.31614 11.4391 4.2059L6.18911 0.122571ZM8.16375 11.6667H9.91521C10.0703 11.6667 10.219 11.6051 10.3287 11.4954C10.4384 11.3857 10.5 11.237 10.5 11.0819V4.94979L5.83188 1.31903L1.16375 4.94979V11.0819C1.16375 11.237 1.22536 11.3857 1.33503 11.4954C1.4447 11.6051 1.59345 11.6667 1.74854 11.6667H3.5V6.41635C3.5 6.09499 3.76051 5.83447 4.08187 5.83447H7.58187C7.90324 5.83447 8.16375 6.09499 8.16375 6.41635V11.6667ZM4.66375 11.6667H7V6.99822H4.66375V11.6667Z" fill="#74798B"/>
</svg>
