<svg width="14" height="14" viewBox="0 0 14 14" fill="none" xmlns="http://www.w3.org/2000/svg">
<path d="M12.25 1.75195C13.2156 1.75195 13.9989 2.53442 13.999 3.5V10.5C13.999 11.4657 13.2157 12.249 12.25 12.249H1.75C0.784422 12.2489 0.00195312 11.4656 0.00195312 10.5V3.5C0.00208852 2.53451 0.784506 1.75209 1.75 1.75195H12.25ZM1.16504 6.41504V10.5C1.16504 10.8229 1.42714 11.0848 1.75 11.085H12.25C12.573 11.085 12.835 10.823 12.835 10.5V6.41504H1.16504ZM1.75 2.91504C1.42723 2.91517 1.16517 3.17723 1.16504 3.5V5.25195H12.835V3.5C12.8348 3.17714 12.5729 2.91504 12.25 2.91504H1.75Z" fill="#74798B"/>
</svg>
