<svg width="14" height="14" viewBox="0 0 14 14" fill="none" xmlns="http://www.w3.org/2000/svg">
<path fill-rule="evenodd" clip-rule="evenodd" d="M2.2636 1.09612C2.59152 0.768205 3.03626 0.583984 3.50001 0.583984H7.58334C7.73766 0.583984 7.88566 0.645289 7.99479 0.754412L12.0781 4.83774C12.1872 4.94687 12.2485 5.09487 12.2485 5.24919V11.6659C12.2485 12.1296 12.0643 12.5743 11.7364 12.9023C11.4085 13.2302 10.9637 13.4144 10.5 13.4144H3.50001C3.03626 13.4144 2.59152 13.2302 2.2636 12.9023C1.93569 12.5743 1.75146 12.1296 1.75146 11.6659V2.33253C1.75146 1.86878 1.93569 1.42404 2.2636 1.09612ZM3.50001 1.74773C3.34491 1.74773 3.19617 1.80935 3.0865 1.91902C2.97683 2.02869 2.91521 2.17743 2.91521 2.33253V11.6659C2.91521 11.821 2.97683 11.9697 3.0865 12.0794C3.19617 12.189 3.34491 12.2506 3.50001 12.2506H10.5C10.6551 12.2506 10.8038 12.189 10.9135 12.0794C11.0232 11.9697 11.0848 11.821 11.0848 11.6659V5.49021L7.34232 1.74773H3.50001Z" fill="#74798B"/>
<path fill-rule="evenodd" clip-rule="evenodd" d="M7.58334 0.583984C7.9047 0.583984 8.16521 0.844499 8.16521 1.16586V4.66732H11.6667C11.988 4.66732 12.2485 4.92783 12.2485 5.24919C12.2485 5.57055 11.988 5.83107 11.6667 5.83107H7.58334C7.26198 5.83107 7.00146 5.57055 7.00146 5.24919V1.16586C7.00146 0.844499 7.26198 0.583984 7.58334 0.583984Z" fill="#74798B"/>
</svg>
