<svg width="14" height="14" viewBox="0 0 14 14" fill="none" xmlns="http://www.w3.org/2000/svg">
<path fill-rule="evenodd" clip-rule="evenodd" d="M1.74984 2.91797C1.42848 2.91797 1.16797 3.17848 1.16797 3.49984C1.16797 3.8212 1.42848 4.08172 1.74984 4.08172H12.2498C12.5712 4.08172 12.8317 3.8212 12.8317 3.49984C12.8317 3.17848 12.5712 2.91797 12.2498 2.91797H1.74984ZM3.49984 5.25073C3.17848 5.25073 2.91797 5.51125 2.91797 5.83261C2.91797 6.15397 3.17848 6.41448 3.49984 6.41448H10.4998C10.8212 6.41448 11.0817 6.15397 11.0817 5.83261C11.0817 5.51125 10.8212 5.25073 10.4998 5.25073H3.49984ZM1.16797 8.16708C1.16797 7.84572 1.42848 7.58521 1.74984 7.58521H12.2498C12.5712 7.58521 12.8317 7.84572 12.8317 8.16708C12.8317 8.48844 12.5712 8.74896 12.2498 8.74896H1.74984C1.42848 8.74896 1.16797 8.48844 1.16797 8.16708ZM3.49984 9.91797C3.17848 9.91797 2.91797 10.1785 2.91797 10.4998C2.91797 10.8212 3.17848 11.0817 3.49984 11.0817H10.4998C10.8212 11.0817 11.0817 10.8212 11.0817 10.4998C11.0817 10.1785 10.8212 9.91797 10.4998 9.91797H3.49984Z" fill="#74798B"/>
</svg>
