<svg width="14" height="14" viewBox="0 0 14 14" fill="none" xmlns="http://www.w3.org/2000/svg">
<path fill-rule="evenodd" clip-rule="evenodd" d="M2.91651 2.33172C2.76141 2.33172 2.61267 2.39333 2.503 2.503C2.39333 2.61267 2.33172 2.76141 2.33172 2.91651V10.8451L3.67173 9.50506C3.78085 9.39594 3.92885 9.33464 4.08318 9.33464H11.0832C11.2383 9.33464 11.387 9.27302 11.4967 9.16335C11.6064 9.05368 11.668 8.90494 11.668 8.74984V2.91651C11.668 2.76141 11.6064 2.61267 11.4967 2.503C11.387 2.39333 11.2383 2.33172 11.0832 2.33172H2.91651ZM1.6801 1.6801C2.00802 1.35219 2.45277 1.16797 2.91651 1.16797H11.0832C11.5469 1.16797 11.9917 1.35219 12.3196 1.6801C12.6475 2.00802 12.8317 2.45277 12.8317 2.91651V8.74984C12.8317 9.21359 12.6475 9.65833 12.3196 9.98625C11.9917 10.3142 11.5469 10.4984 11.0832 10.4984H4.3242L2.16129 12.6613C1.99488 12.8277 1.7446 12.8775 1.52717 12.7874C1.30974 12.6974 1.16797 12.4852 1.16797 12.2498V2.91651C1.16797 2.45277 1.35219 2.00802 1.6801 1.6801Z" fill="#74798B"/>
</svg>
