<svg width="16" height="14" viewBox="0 0 16 14" fill="none" xmlns="http://www.w3.org/2000/svg">
<path fill-rule="evenodd" clip-rule="evenodd" d="M2 2H11C11.5523 2 12 2.44772 12 3V4C12 4.55228 11.5523 5 11 5H2C1.44772 5 1 4.55228 1 4V3C1 2.44772 1.44772 2 2 2ZM0 3C0 1.89543 0.895431 1 2 1H11C12.1046 1 13 1.89543 13 3V4C13 5.10457 12.1046 6 11 6H2C0.89543 6 0 5.10457 0 4V3ZM5 9H14C14.5523 9 15 9.44771 15 10V11C15 11.5523 14.5523 12 14 12H5C4.44772 12 4 11.5523 4 11V10C4 9.44772 4.44772 9 5 9ZM3 10C3 8.89543 3.89543 8 5 8H14C15.1046 8 16 8.89543 16 10V11C16 12.1046 15.1046 13 14 13H5C3.89543 13 3 12.1046 3 11V10Z" fill="#74798B"/>
</svg>
