<svg width="16" height="14" viewBox="0 0 16 14" fill="none" xmlns="http://www.w3.org/2000/svg">
<path fill-rule="evenodd" clip-rule="evenodd" d="M10.6926 0H5.30741H5.30684C4.49939 0 3.85717 0 3.33901 0.0422661C2.80828 0.0855477 2.35574 0.176094 1.94137 0.386853C1.27235 0.727132 0.728419 1.2701 0.387529 1.93794C0.176398 2.35158 0.0856983 2.80334 0.0423362 3.33313C-8.38935e-06 3.85049 -4.62947e-06 4.49174 9.96262e-08 5.29805V5.29806V8.70189V8.7019C-4.62947e-06 9.50827 -8.38935e-06 10.1495 0.0423362 10.6668C0.0856983 11.1966 0.176398 11.6484 0.387529 12.0621C0.728419 12.7298 1.27235 13.2729 1.94137 13.6131C2.35574 13.8239 2.80828 13.9144 3.33901 13.9577C3.85729 14 4.49969 14 5.30743 14H10.6926C11.5003 14 12.1427 14 12.661 13.9577C13.1918 13.9144 13.6443 13.8239 14.0587 13.6131C14.7277 13.2729 15.2716 12.7298 15.6125 12.0621C15.8236 11.6484 15.9144 11.1966 15.9577 10.6668C16 10.1495 16 9.50827 16 8.70189V5.29807C16 4.49176 16 3.85049 15.9577 3.33313C15.9144 2.80334 15.8236 2.35158 15.6125 1.93794C15.2716 1.2701 14.7277 0.727132 14.0587 0.386853C13.6443 0.176094 13.1918 0.0855477 12.661 0.0422661C12.1428 0 11.5006 0 10.6932 0H10.6926ZM2.47943 1.441C2.69888 1.32939 2.97809 1.25874 3.43553 1.22143C3.89988 1.18356 4.49386 1.1831 5.33335 1.1831H6.21875V12.8169H5.33335C4.49386 12.8169 3.89988 12.8164 3.43553 12.7785C2.97809 12.7413 2.69888 12.6706 2.47943 12.559C2.03342 12.3321 1.6708 11.9702 1.44354 11.525C1.33173 11.3059 1.26096 11.0272 1.22359 10.5705C1.18564 10.107 1.18519 9.51409 1.18519 8.67606V5.32394C1.18519 4.48593 1.18564 3.893 1.22359 3.42947C1.26096 2.97284 1.33173 2.69412 1.44354 2.47506C1.6708 2.02983 2.03342 1.66785 2.47943 1.441ZM7.40394 12.8169H10.6667C11.5062 12.8169 12.1001 12.8164 12.5645 12.7785C13.0219 12.7413 13.3011 12.6706 13.5206 12.559C13.9666 12.3321 14.3293 11.9702 14.5565 11.525C14.6683 11.3059 14.7391 11.0272 14.7765 10.5705C14.8144 10.107 14.8148 9.51409 14.8148 8.67606V5.32394C14.8148 4.48593 14.8144 3.893 14.7765 3.42947C14.7391 2.97284 14.6683 2.69412 14.5565 2.47506C14.3293 2.02983 13.9666 1.66785 13.5206 1.441C13.3011 1.32939 13.0219 1.25874 12.5645 1.22143C12.1001 1.18356 11.5062 1.1831 10.6667 1.1831H7.40394V12.8169ZM2.44531 3.47607C2.44531 3.14937 2.71063 2.88452 3.03791 2.88452H4.37124C4.69852 2.88452 4.96384 3.14937 4.96384 3.47607C4.96384 3.80277 4.69852 4.06762 4.37124 4.06762H3.03791C2.71063 4.06762 2.44531 3.80277 2.44531 3.47607ZM3.03791 5.10107C2.71063 5.10107 2.44531 5.36592 2.44531 5.69262C2.44531 6.01933 2.71063 6.28417 3.03791 6.28417H4.37124C4.69852 6.28417 4.96384 6.01933 4.96384 5.69262C4.96384 5.36592 4.69852 5.10107 4.37124 5.10107H3.03791Z" fill="#74798B"/>
</svg>
