<svg width="12" height="12" viewBox="0 0 12 12" fill="none" xmlns="http://www.w3.org/2000/svg">
<path fill-rule="evenodd" clip-rule="evenodd" d="M1.16375 5.24854C1.16375 2.99257 2.99257 1.16375 5.24854 1.16375C7.50451 1.16375 9.33333 2.99257 9.33333 5.24854C9.33333 6.3494 8.89785 7.34855 8.18976 8.08311C8.17004 8.09831 8.15108 8.11494 8.13301 8.13301C8.11494 8.15108 8.09831 8.17004 8.08311 8.18976C7.34855 8.89785 6.3494 9.33333 5.24854 9.33333C2.99257 9.33333 1.16375 7.50451 1.16375 5.24854ZM8.52563 9.34853C7.62758 10.0673 6.48826 10.4971 5.24854 10.4971C2.34985 10.4971 0 8.14723 0 5.24854C0 2.34985 2.34985 0 5.24854 0C8.14723 0 10.4971 2.34985 10.4971 5.24854C10.4971 6.48826 10.0673 7.62758 9.34853 8.52563L11.4934 10.6705C11.7206 10.8977 11.7206 11.2662 11.4934 11.4934C11.2662 11.7206 10.8977 11.7206 10.6705 11.4934L8.52563 9.34853Z" fill="#74798B"/>
</svg>
