<svg width="14" height="12" viewBox="0 0 14 12" fill="none" xmlns="http://www.w3.org/2000/svg">
<path fill-rule="evenodd" clip-rule="evenodd" d="M3.20535 2.91521C3.20535 1.9479 3.9895 1.16375 4.9568 1.16375C5.92411 1.16375 6.70826 1.9479 6.70826 2.91521C6.70826 3.88251 5.92411 4.66667 4.9568 4.66667C3.9895 4.66667 3.20535 3.88251 3.20535 2.91521ZM4.9568 0C3.34678 0 2.0416 1.30518 2.0416 2.91521C2.0416 4.52523 3.34678 5.83042 4.9568 5.83042C6.56683 5.83042 7.87201 4.52523 7.87201 2.91521C7.87201 1.30518 6.56683 0 4.9568 0ZM2.91521 7C2.14205 7 1.40055 7.30714 0.853845 7.85385C0.307137 8.40055 0 9.14205 0 9.91521V11.0819C0 11.4032 0.260514 11.6637 0.581875 11.6637C0.903236 11.6637 1.16375 11.4032 1.16375 11.0819V9.91521C1.16375 9.45069 1.34828 9.0052 1.67674 8.67674C2.0052 8.34828 2.45069 8.16375 2.91521 8.16375H6.99854C7.46306 8.16375 7.90855 8.34828 8.23701 8.67674C8.56547 9.0052 8.75 9.45069 8.75 9.91521V11.0819C8.75 11.4032 9.01051 11.6637 9.33187 11.6637C9.65324 11.6637 9.91375 11.4032 9.91375 11.0819V9.91521C9.91375 9.14205 9.60661 8.40055 9.05991 7.85385C8.5132 7.30714 7.7717 7 6.99854 7H2.91521ZM11.6651 2.91553C11.9864 2.91553 12.2469 3.17604 12.2469 3.4974V4.66553H13.4151C13.7364 4.66553 13.9969 4.92604 13.9969 5.2474C13.9969 5.56876 13.7364 5.82928 13.4151 5.82928H12.2469V6.9974C12.2469 7.31876 11.9864 7.57928 11.6651 7.57928C11.3437 7.57928 11.0832 7.31876 11.0832 6.9974V5.82928H9.91507C9.59371 5.82928 9.33319 5.56876 9.33319 5.2474C9.33319 4.92604 9.59371 4.66553 9.91507 4.66553H11.0832V3.4974C11.0832 3.17604 11.3437 2.91553 11.6651 2.91553Z" fill="#74798B"/>
</svg>
