<svg width="14" height="12" viewBox="0 0 14 12" fill="none" xmlns="http://www.w3.org/2000/svg">
<path fill-rule="evenodd" clip-rule="evenodd" d="M3.49737 2.91521C3.49737 1.9479 4.28152 1.16375 5.24883 1.16375C6.21613 1.16375 7.00028 1.9479 7.00028 2.91521C7.00028 3.88251 6.21613 4.66667 5.24883 4.66667C4.28152 4.66667 3.49737 3.88251 3.49737 2.91521ZM5.24883 0C3.6388 0 2.33362 1.30518 2.33362 2.91521C2.33362 4.52523 3.6388 5.83042 5.24883 5.83042C6.85885 5.83042 8.16403 4.52523 8.16403 2.91521C8.16403 1.30518 6.85885 0 5.24883 0ZM2.91521 7C2.14205 7 1.40055 7.30714 0.853845 7.85385C0.307137 8.40055 0 9.14205 0 9.91521V11.0819C0 11.4032 0.260514 11.6637 0.581875 11.6637C0.903236 11.6637 1.16375 11.4032 1.16375 11.0819V9.91521C1.16375 9.45069 1.34828 9.0052 1.67674 8.67674C2.0052 8.34828 2.45069 8.16375 2.91521 8.16375H7.58187C8.04639 8.16375 8.49188 8.34828 8.82034 8.67674C9.14881 9.0052 9.33333 9.45069 9.33333 9.91521V11.0819C9.33333 11.4032 9.59385 11.6637 9.91521 11.6637C10.2366 11.6637 10.4971 11.4032 10.4971 11.0819V9.91521C10.4971 9.14205 10.1899 8.40055 9.64324 7.85385C9.09653 7.30714 8.35504 7 7.58187 7H2.91521ZM11.1018 7.51217C11.1821 7.20101 11.4995 7.0139 11.8107 7.09424C12.4361 7.25572 12.9902 7.62033 13.3859 8.13083C13.7816 8.64132 13.9966 9.26879 13.9971 9.9147V11.0818C13.9971 11.4032 13.7366 11.6637 13.4152 11.6637C13.0938 11.6637 12.8333 11.4032 12.8333 11.0818V9.91532C12.833 9.52734 12.7038 9.15046 12.4661 8.84382C12.2284 8.53711 11.8955 8.31805 11.5197 8.22104C11.2086 8.1407 11.0215 7.82333 11.1018 7.51217ZM9.47634 0.0939462C9.16502 0.0142362 8.84803 0.201992 8.76832 0.51331C8.68861 0.824628 8.87637 1.14162 9.18769 1.22133C9.56443 1.31779 9.89836 1.5369 10.1368 1.84411C10.3753 2.15132 10.5047 2.52916 10.5047 2.91805C10.5047 3.30695 10.3753 3.68479 10.1368 3.992C9.89836 4.29921 9.56443 4.51832 9.18769 4.61478C8.87637 4.69449 8.68861 5.01148 8.76832 5.3228C8.84803 5.63412 9.16502 5.82187 9.47634 5.74216C10.1034 5.58161 10.6592 5.21691 11.0561 4.70558C11.453 4.19425 11.6685 3.56535 11.6685 2.91805C11.6685 2.27075 11.453 1.64186 11.0561 1.13053C10.6592 0.619195 10.1034 0.254502 9.47634 0.0939462Z" fill="#4A4D59"/>
</svg>
